<svg width="52" height="52" viewBox="0 0 52 52" fill="none" xmlns="http://www.w3.org/2000/svg">
<g clip-path="url(#clip0_1703_12888)">
<rect width="52" height="52" rx="9" fill="#473AE9"/>
<path d="M26.0184 19.7581C22.5737 19.7581 19.7912 22.5405 19.7912 25.9854C19.7912 29.4301 22.5737 32.2127 26.0184 32.2127C29.4631 32.2127 32.2457 29.4303 32.2457 25.9854C32.2457 22.5406 29.4631 19.7581 26.0184 19.7581ZM28.9334 25.058L25.886 28.1054C25.7203 28.2711 25.4886 28.3704 25.2566 28.3704C25.0246 28.3704 24.8259 28.2711 24.6272 28.1054L23.1034 26.5816C22.772 26.2503 22.772 25.6872 23.1034 25.3561C23.4347 25.0248 23.9978 25.0248 24.3289 25.3561L25.2563 26.2836L27.6743 23.8656C28.0057 23.5343 28.5687 23.5343 28.8998 23.8656C29.2644 24.1636 29.2644 24.7267 28.9333 25.058H28.9334Z" fill="white"/>
<path d="M29.5284 35.9216L30.8202 36.4517C31.6483 36.783 32.5757 36.253 32.6751 35.3916L32.8738 34.0004C32.9401 33.4043 33.4368 32.9073 34.0332 32.841L35.4244 32.6422C36.3188 32.5098 36.8486 31.6155 36.4845 30.7874L35.9545 29.4955C35.7225 28.9325 35.8881 28.27 36.3851 27.9057L37.4782 27.0445C38.1739 26.5145 38.1739 25.4214 37.4782 24.8916L36.3851 24.0632C35.8884 23.6989 35.7227 23.0365 35.9545 22.4734L36.4845 21.1815C36.8158 20.3534 36.2858 19.426 35.4244 19.3267L34.0332 19.128C33.4371 19.0616 32.9401 18.5649 32.8738 17.9685L32.6751 16.5773C32.5427 15.6829 31.6483 15.1531 30.8202 15.5172L29.5284 16.0473C28.9653 16.2792 28.3028 16.1136 27.9385 15.6166L27.0773 14.5235C26.5473 13.8278 25.4542 13.8278 24.9244 14.5235L24.0632 15.6166C23.6989 16.1133 23.0365 16.279 22.4734 16.0473L21.1815 15.5172C20.3534 15.1859 19.426 15.7159 19.3267 16.5773L19.128 17.9685C19.0616 18.5646 18.5649 19.0616 17.9685 19.128L16.5773 19.3267C15.6829 19.4591 15.1531 20.3534 15.5172 21.1815L16.0473 22.4734C16.2792 23.0364 16.1136 23.6989 15.6166 24.0632L14.5235 24.9244C13.8278 25.4544 13.8278 26.5475 14.5235 27.0773L15.6166 27.9385C16.1133 28.3029 16.279 28.9653 16.0473 29.5284L15.5172 30.8202C15.1859 31.6483 15.7159 32.5758 16.5773 32.6751L17.9685 32.8738C18.5646 32.9401 19.0616 33.4369 19.128 34.0332L19.3267 35.4244C19.4591 36.3188 20.3534 36.8486 21.1815 36.4845L22.4734 35.9545C23.0364 35.7225 23.6989 35.8882 24.0632 36.3852L24.9244 37.4782C25.4544 38.174 26.5475 38.174 27.0773 37.4782L27.9385 36.3852C28.3028 35.8884 28.9653 35.6897 29.5284 35.9216ZM26.0173 33.5034C21.8768 33.5034 18.4982 30.1247 18.4982 25.9843C18.4982 21.8441 21.8769 18.4321 26.0173 18.4321C30.1577 18.4321 33.5364 21.8108 33.5364 25.9512C33.5364 30.0914 30.1577 33.5034 26.0173 33.5034Z" fill="white"/>
</g>
<defs>
<clipPath id="clip0_1703_12888">
<rect width="52" height="52" rx="6" fill="white"/>
</clipPath>
</defs>
</svg>
