<svg width="52" height="52" viewBox="0 0 52 52" fill="none" xmlns="http://www.w3.org/2000/svg">
<g clip-path="url(#clip0_342_5734)">
<rect width="52" height="52" rx="9" fill="#FFA427"/>
<path d="M32.5408 18.12L27.0408 16.06C26.4708 15.85 25.5408 15.85 24.9708 16.06L19.4708 18.12C18.4108 18.52 17.5508 19.76 17.5508 20.89V28.99C17.5508 29.8 18.0808 30.87 18.7308 31.35L24.2308 35.46C25.2008 36.19 26.7908 36.19 27.7608 35.46L33.2608 31.35C33.9108 30.86 34.4408 29.8 34.4408 28.99V20.89C34.4508 19.76 33.5908 18.52 32.5408 18.12ZM29.4808 23.72L25.1808 28.02C25.0308 28.17 24.8408 28.24 24.6508 28.24C24.4608 28.24 24.2708 28.17 24.1208 28.02L22.5208 26.4C22.2308 26.11 22.2308 25.63 22.5208 25.34C22.8108 25.05 23.2908 25.05 23.5808 25.34L24.6608 26.42L28.4308 22.65C28.7208 22.36 29.2008 22.36 29.4908 22.65C29.7808 22.94 29.7808 23.43 29.4808 23.72Z" fill="#FDFDFF"/>
</g>
<defs>
<clipPath id="clip0_342_5734">
<rect width="52" height="52" rx="6" fill="white"/>
</clipPath>
</defs>
</svg>
