<svg width="52" height="52" viewBox="0 0 52 52" fill="none" xmlns="http://www.w3.org/2000/svg">
<g clip-path="url(#clip0_342_5727)">
<rect width="52" height="52" rx="9" fill="#8E00C5"/>
<path d="M23.2813 26C23.2813 26.6962 23.5578 27.3639 24.0501 27.8562C24.5424 28.3484 25.2101 28.625 25.9063 28.625C26.6025 28.625 27.2701 28.3484 27.7624 27.8562C28.2547 27.3639 28.5313 26.6962 28.5313 26C28.5313 25.3038 28.2547 24.6361 27.7624 24.1438C27.2701 23.6516 26.6025 23.375 25.9063 23.375C25.2101 23.375 24.5424 23.6516 24.0501 24.1438C23.5578 24.6361 23.2813 25.3038 23.2813 26ZM36.0828 25.3953C33.861 20.7148 30.5024 18.3594 26 18.3594C21.4953 18.3594 18.1391 20.7148 15.9172 25.3977C15.8281 25.5864 15.7819 25.7925 15.7819 26.0012C15.7819 26.2099 15.8281 26.416 15.9172 26.6047C18.1391 31.2852 21.4977 33.6406 26 33.6406C30.5047 33.6406 33.861 31.2852 36.0828 26.6023C36.2633 26.2227 36.2633 25.782 36.0828 25.3953ZM25.9063 30.125C23.6281 30.125 21.7813 28.2781 21.7813 26C21.7813 23.7219 23.6281 21.875 25.9063 21.875C28.1844 21.875 30.0313 23.7219 30.0313 26C30.0313 28.2781 28.1844 30.125 25.9063 30.125Z" fill="white"/>
</g>
<defs>
<clipPath id="clip0_342_5727">
<rect width="52" height="52" rx="6" fill="white"/>
</clipPath>
</defs>
</svg>
